<mxfile host="app.diagrams.net" modified="2023-05-31T12:41:33.455Z" agent="Mozilla/5.0 (Windows NT 10.0; Win64; x64) AppleWebKit/537.36 (KHTML, like Gecko) Chrome/113.0.0.0 Safari/537.36" etag="-SYB0HsPhqzXEBNH8Bmv" version="21.3.6" type="github">
  <diagram name="PÃ¡gina-1" id="viSFiNuP14WPjnxstCa3">
    <mxGraphModel dx="1434" dy="796" grid="1" gridSize="10" guides="1" tooltips="1" connect="1" arrows="1" fold="1" page="1" pageScale="1" pageWidth="827" pageHeight="1169" math="0" shadow="0">
      <root>
        <mxCell id="0" />
        <mxCell id="1" parent="0" />
        <mxCell id="x7eohHFTbT3_CZib7BVc-4" style="edgeStyle=orthogonalEdgeStyle;rounded=0;orthogonalLoop=1;jettySize=auto;html=1;exitX=1;exitY=0.25;exitDx=0;exitDy=0;entryX=0;entryY=0.25;entryDx=0;entryDy=0;" edge="1" parent="1" source="x7eohHFTbT3_CZib7BVc-1" target="x7eohHFTbT3_CZib7BVc-2">
          <mxGeometry relative="1" as="geometry" />
        </mxCell>
        <mxCell id="x7eohHFTbT3_CZib7BVc-1" value="Web App Angular" style="rounded=0;whiteSpace=wrap;html=1;" vertex="1" parent="1">
          <mxGeometry x="100" y="120" width="100" height="60" as="geometry" />
        </mxCell>
        <mxCell id="x7eohHFTbT3_CZib7BVc-5" style="edgeStyle=orthogonalEdgeStyle;rounded=0;orthogonalLoop=1;jettySize=auto;html=1;exitX=1;exitY=0.5;exitDx=0;exitDy=0;entryX=0;entryY=0;entryDx=0;entryDy=27.5;entryPerimeter=0;" edge="1" parent="1" source="x7eohHFTbT3_CZib7BVc-2" target="x7eohHFTbT3_CZib7BVc-3">
          <mxGeometry relative="1" as="geometry" />
        </mxCell>
        <mxCell id="x7eohHFTbT3_CZib7BVc-8" style="edgeStyle=orthogonalEdgeStyle;rounded=0;orthogonalLoop=1;jettySize=auto;html=1;exitX=0.5;exitY=0;exitDx=0;exitDy=0;entryX=0.5;entryY=1;entryDx=0;entryDy=0;" edge="1" parent="1" source="x7eohHFTbT3_CZib7BVc-2" target="x7eohHFTbT3_CZib7BVc-7">
          <mxGeometry relative="1" as="geometry" />
        </mxCell>
        <mxCell id="x7eohHFTbT3_CZib7BVc-2" value="API Java Spring" style="rounded=0;whiteSpace=wrap;html=1;" vertex="1" parent="1">
          <mxGeometry x="280" y="120" width="120" height="60" as="geometry" />
        </mxCell>
        <mxCell id="x7eohHFTbT3_CZib7BVc-3" value="DB mysql" style="shape=cylinder3;whiteSpace=wrap;html=1;boundedLbl=1;backgroundOutline=1;size=15;" vertex="1" parent="1">
          <mxGeometry x="480" y="120" width="80" height="80" as="geometry" />
        </mxCell>
        <mxCell id="x7eohHFTbT3_CZib7BVc-9" style="edgeStyle=orthogonalEdgeStyle;rounded=0;orthogonalLoop=1;jettySize=auto;html=1;exitX=0.75;exitY=1;exitDx=0;exitDy=0;entryX=0.75;entryY=0;entryDx=0;entryDy=0;" edge="1" parent="1" source="x7eohHFTbT3_CZib7BVc-7" target="x7eohHFTbT3_CZib7BVc-2">
          <mxGeometry relative="1" as="geometry" />
        </mxCell>
        <mxCell id="x7eohHFTbT3_CZib7BVc-7" value="Repo of Assets" style="rounded=0;whiteSpace=wrap;html=1;" vertex="1" parent="1">
          <mxGeometry x="280" y="20" width="120" height="60" as="geometry" />
        </mxCell>
        <mxCell id="x7eohHFTbT3_CZib7BVc-10" value="It is necessary to redesign the front end in order to align it with the new structure and rules of the database." style="rounded=1;whiteSpace=wrap;html=1;dashed=1;dashPattern=8 8;" vertex="1" parent="1">
          <mxGeometry x="20" y="190" width="120" height="80" as="geometry" />
        </mxCell>
        <mxCell id="x7eohHFTbT3_CZib7BVc-11" value="Create the new endpoints for bulk export/import, as well as the implementation of new pagination and filters." style="rounded=1;whiteSpace=wrap;html=1;dashed=1;dashPattern=8 8;" vertex="1" parent="1">
          <mxGeometry x="270" y="200" width="140" height="80" as="geometry" />
        </mxCell>
        <mxCell id="x7eohHFTbT3_CZib7BVc-12" value="Verify if the database structure aligns with the rest of the planning." style="rounded=1;whiteSpace=wrap;html=1;dashed=1;dashPattern=8 8;" vertex="1" parent="1">
          <mxGeometry x="560" y="200" width="140" height="80" as="geometry" />
        </mxCell>
      </root>
    </mxGraphModel>
  </diagram>
</mxfile>
